<svg xmlns="http://www.w3.org/2000/svg" width="193.373" height="150"><defs><clipPath id="a"><path data-name="Rectangle 1158" fill="none" d="M0 0h155.535v150H0z"/></clipPath></defs><g data-name="Group 1954"><g data-name="Group 1953" clip-path="url(#a)" transform="translate(37.837)"><g data-name="Group 1952"><g data-name="Group 1951"><path data-name="Path 7957" d="M29.796 30.747H148.94l.094-.116a18.345 18.345 0 0 0 0-22.556l-.094-.116H29.796l.586.669a16.382 16.382 0 0 1-.481 22.009Z" fill="#6f0f0b"/><path data-name="Path 7958" d="M125.216 177.775H16.425v-156.3c0-7.3 5.616-13.207 12.548-13.207h106.43s11.044-.691 10.823 0c-7.75.16-7.352 22.788-7.352 22.788v132.345c.001 7.938-6.118 14.374-13.658 14.374Z" fill="#fff"/><path data-name="Path 7959" d="M125.055 177.775H5.911l-.094-.111a18.353 18.353 0 0 1 0-22.561l.094-.111h119.144l-.586.669c-5.533 6.258-6.467 16.945.586 22.114Z" fill="#6f0f0b"/></g></g></g></g><g data-name="Group 1957" transform="translate(0 .215)"><ellipse data-name="Ellipse 993" cx="68.343" cy="68.303" rx="68.343" ry="68.303" fill="#fff"/><ellipse data-name="Ellipse 994" cx="66.369" cy="66.329" rx="66.369" ry="66.329" transform="translate(1.974 1.974)" fill="#9b1f15"/><g data-name="Group 1956"><g data-name="Group 1955" fill="#fff"><path data-name="Path 7960" d="m52.983 120.547-1.936 5.061-2.091-.791 1.9-4.995c.658-1.709.177-2.7-1.09-3.192s-2.279-.061-2.937 1.665l-1.9 4.984-2.065-.785 1.93-5.067c1.012-2.661 3.1-3.551 5.67-2.572s3.532 3.037 2.519 5.692Z"/><path data-name="Path 7961" d="m41.302 111.756-1.61.913a5.706 5.706 0 0 0-1.986-2.7c-1.073-.78-1.77-.747-2.129-.271-1.068 1.471 4.22 3.8 2.091 6.71-.979 1.322-2.86 1.654-5.089.022a6.573 6.573 0 0 1-2.207-2.683l1.565-.974a5.412 5.412 0 0 0 1.72 2.207c1.079.791 1.781.686 2.146.194 1.051-1.438-4.226-3.783-2.124-6.66.957-1.305 2.865-1.626 5.1.011a6.852 6.852 0 0 1 2.523 3.231Z"/><path data-name="Path 7962" d="m26.069 99.039 2.826 3.5 2.157-.636 1.444 1.787-10.255 2.738-1.394-1.726 4.818-9.459 1.477 1.825Zm-.885 1.615-1.919 3.529 3.855-1.14Z"/><path data-name="Path 7963" d="m11.1 86.453 8.994-3.634.846 2.085-3.695 1.488 1.654 4.088 3.69-1.493.841 2.085-9 3.634-.841-2.085 3.546-1.427-1.648-4.093-3.546 1.433Z"/><path data-name="Path 7964" d="m16.112 71.077.42 4.48 2.141.647.216 2.29-10.04-3.391-.2-2.2 9.221-5.205.216 2.334Zm-1.626.863-3.551 1.87 3.839 1.184Z"/><path data-name="Path 7965" d="m22.574 47.338-5.437-2.052 3.457 4.364-.354.946-5.365.99 5.31 2.019-.752 1.964-9.033-3.446.653-1.726 6.914-1.25-4.353-5.465.653-1.726 9.055 3.424Z"/><path data-name="Path 7966" d="m29.586 33.282 1.427 1.1-4.585 5.952-7.683-5.93 4.475-5.808 1.427 1.106-3.114 4.038 1.665 1.289 2.755-3.568 1.383 1.062-2.755 3.568 1.781 1.377Z"/><path data-name="Path 7967" d="m35.997 17.622 5.813 7.755-1.466 1.112-7.4-1.809 3.523 4.7-1.77 1.328-5.808-7.749 1.482-1.117 7.39 1.82-3.535-4.707Z"/><path data-name="Path 7968" d="m53.465 18.263.642 1.687-7.02 2.672-3.462-9.055 6.859-2.616.642 1.687-4.763 1.814.747 1.964 4.2-1.6.619 1.632-4.2 1.6.8 2.1Z"/><path data-name="Path 7969" d="m67.166 8.224.907 9.63-1.825.166-5.355-5.388.548 5.836-2.2.216-.9-9.63 1.847-.171 5.327 5.4-.548-5.852Z"/><path data-name="Path 7970" d="m81.343 14.613 2 .393-.769 3.855a6.646 6.646 0 0 1-4.077.437 5.013 5.013 0 1 1 2-9.807 5.166 5.166 0 0 1 3.651 2.439l-1.671 1.018a3.308 3.308 0 0 0-2.24-1.565 3.1 3.1 0 1 0-1.25 6.068 3.585 3.585 0 0 0 1.792-.061Z"/><path data-name="Path 7971" d="m94.342 22.915-3.977-2.08-1.72 1.444-2.035-1.062 8.3-6.577 1.958 1.018-.642 10.587-2.085-1.1Zm.166-1.831.354-4-3.075 2.578Z"/><path data-name="Path 7972" d="m112.955 28.203-6.721 6.953-1.61-1.554 2.755-2.854-3.159-3.053-2.755 2.854-1.61-1.554 6.721-6.947 1.61 1.549-2.644 2.738 3.153 3.059 2.649-2.738Z"/><path data-name="Path 7973" d="m116.213 53.488.586-1.471a5.229 5.229 0 0 1-2.185-2.633c-.763-1.98-.3-3.839 1.134-4.4 1.145-.437 2.163-.138 3.474.946a2.913 2.913 0 0 1 1.549-1.676c1.316-.5 2.65.249 3.308 1.953.608 1.56.2 2.9-1.068 3.4-.929.359-1.825.083-2.97-.88l-.891 2.235a6.073 6.073 0 0 0 1.582-.089l.116 1.809a6.241 6.241 0 0 1-2.362-.033l-.575 1.444Zm1.222-3.081 1.184-2.97c-.8-.647-1.322-.78-1.875-.57-.658.26-.885 1.062-.5 2.052a3.074 3.074 0 0 0 1.191 1.488Zm4.071-4.331c-.343.133-.548.376-.879 1.145.83.7 1.272.852 1.681.7a.826.826 0 0 0 .4-1.184.912.912 0 0 0-1.202-.661Z"/><path data-name="Path 7974" d="M120.71 76.123c-1.676-.1-2.561-1.482-2.412-4.021l.3-4.989 9.652.575-.282 4.713c-.138 2.412-1.217 3.6-2.727 3.5a2.313 2.313 0 0 1-2.047-1.4 2.389 2.389 0 0 1-2.484 1.622Zm.365-2.235c.813.055 1.233-.553 1.305-1.709l.155-2.605-2.389-.144-.155 2.605c-.072 1.156.259 1.803 1.084 1.853Zm5.36-4.082-2.273-.138-.133 2.224c-.066 1.084.288 1.7 1.045 1.748s1.167-.525 1.234-1.61Z"/><path data-name="Path 7975" d="m116.162 88.711-1.7-.575 2.417-7.1 9.165 3.125-2.356 6.925-1.709-.575 1.643-4.818-1.986-.68-1.455 4.254-1.654-.564 1.455-4.254-2.124-.725Z"/><path data-name="Path 7976" d="m113.171 92.951.99 1.554a5.752 5.752 0 0 0-2.588 2.124c-.725 1.112-.653 1.8-.161 2.13 1.521 1 3.562-4.392 6.571-2.428 1.372.9 1.792 2.766.288 5.061a6.526 6.526 0 0 1-2.561 2.345l-1.046-1.51a5.458 5.458 0 0 0 2.108-1.825c.73-1.112.586-1.814.083-2.141-1.494-.99-3.546 4.4-6.516 2.45-1.355-.885-1.776-2.766-.266-5.078a6.888 6.888 0 0 1 3.098-2.682Z"/><path data-name="Path 7977" d="m101.233 108.705 3.391-2.976-.736-2.13 1.726-1.521 3.169 10.133-1.665 1.471-9.669-4.414 1.77-1.56Zm1.665.813 3.612 1.77-1.305-3.806Z"/><path data-name="Path 7978" d="m87.897 114.363 2.848 1.626.1-.05 1.765-.835-1.167-2.439 2.019-.962 4.176 8.74-3.784 1.8c-2.323 1.117-4.37.6-5.31-1.355a3.155 3.155 0 0 1 .481-3.618l-3.3-1.864Zm5.282 6.178 1.643-.785-1.449-3.048-1.643.791c-1.239.592-1.588 1.46-1.134 2.406.46.967 1.356 1.228 2.586.636Z"/></g></g><ellipse data-name="Ellipse 995" cx="44.509" cy="44.469" rx="44.509" ry="44.469" transform="translate(23.834 23.834)" fill="#fff"/><text data-name="NON UMK" transform="rotate(-.745 4748.772 -5218.337)" fill="#034ea9" font-size="19" font-family="Montserrat" font-weight="600"><tspan x="-23.389" y="0">NON</tspan><tspan font-size="28"><tspan x="-34.622" y="25">UMK</tspan></tspan></text></g><g data-name="Group 1958"><path data-name="Path 7979" d="M127.199 125.408h33.52a.706.706 0 0 0 0-1.41h-33.52a.706.706 0 0 0 0 1.41Z" fill="#9b1f15"/><path data-name="Path 7980" d="M154.236 119.014a8.392 8.392 0 0 1-3.689.47l-.172-.5c-.133-.382-.758-.459-.852 0-.028.144-.326 1.427-.813.8-.288-.371-.127-.951-.077-1.372a1.931 1.931 0 0 0-.26-1.422c-.365-.437-1.355-.874-1.814-.3-.719.891.359 2.1-.487 3.064-.5.564-1.394.2-1.853-.26a3.212 3.212 0 0 0-.055-3.208.456.456 0 0 0-.785 0 4.113 4.113 0 0 0-.293 3.109 1.3 1.3 0 0 1-1.388.089 5.222 5.222 0 0 0 .658-4.27.486.486 0 0 0-.88-.116 5.246 5.246 0 0 0-1.3 3.335 2.387 2.387 0 0 0 .321 1.068 4.277 4.277 0 0 1-2.816 1.427l-.05-.194c-.077-.266-.166-.525-.255-.785 0-.614.006-1.228.033-1.842.094-.155.2-.3.315-.465a17.88 17.88 0 0 0 1.361-2.362 19.283 19.283 0 0 0 1.825-10.548.464.464 0 0 0-.786-.326 6.037 6.037 0 0 0-1.787 3.064 40.775 40.775 0 0 0-1.151 4.635 40.206 40.206 0 0 0-.669 5.636l-.111.16a2.355 2.355 0 0 0 .061 2.3c.006.4.011.791.028 1.189a.458.458 0 0 0 .448.454h.022a20.052 20.052 0 0 1 .443 2.556 19.294 19.294 0 0 1-.642 7.329c-.9-.42-1.023-5.177-1.051-5.819a43.634 43.634 0 0 1 .188-4.962.408.408 0 0 0 .188-.431l-.125-.696a.436.436 0 0 0-.835 0 29.443 29.443 0 0 0-.332 6.079c.028 1.056.116 2.107.238 3.158a9.548 9.548 0 0 0 .492 2.556c.393.924 1.737 1.7 2.135.382a20.025 20.025 0 0 0 .786-5.636 19.407 19.407 0 0 0-.542-4.552 5.2 5.2 0 0 0 3.225-1.621 2.51 2.51 0 0 0 .6.321 2.112 2.112 0 0 0 1.853-.36 1.943 1.943 0 0 0 .321.271c1.1.741 2.843.636 3.291-.83a4.56 4.56 0 0 0 .022-2.2.3.3 0 0 1 .4.1c.271.21.122.946.089 1.239a2.178 2.178 0 0 0 .133 1.3 1.423 1.423 0 0 0 1.322.874 1.08 1.08 0 0 0 .841-.636.653.653 0 0 0 .221.066 8.856 8.856 0 0 0 4.243-.459c.542-.195.309-1.058-.233-.859Zm-16.235-6.344c.232-1.344.553-2.672.918-3.988a9.422 9.422 0 0 1 1.151-2.882 18.737 18.737 0 0 1-2.524 10.321c.1-1.156.251-2.306.456-3.451Zm3.579 4a4.384 4.384 0 0 1-.5 1.969 2.9 2.9 0 0 1 .5-1.97Z" fill="#9b1f15"/><path data-name="Path 7981" d="M156.514 120.895a.39.39 0 0 0 0 .78.39.39 0 0 0 0-.78Z" fill="#33454c"/></g></svg>